<svg xmlns="http://www.w3.org/2000/svg" xmlns:xlink="http://www.w3.org/1999/xlink" contentStyleType="text/css" data-diagram-type="CLASS" height="830px" preserveAspectRatio="none" style="width:1975px;height:830px;background:#FFFFFF;" version="1.1" viewBox="0 0 1975 830" width="1975px" zoomAndPan="magnify"><defs/><g><!--class ExamPriority--><g class="entity" data-entity="ExamPriority" data-source-line="6" data-uid="ent0002" id="entity_ExamPriority"><rect fill="#F1F1F1" height="96.8906" rx="2.5" ry="2.5" style="stroke:#181818;stroke-width:0.5;" width="137.043" x="232.92" y="7"/><ellipse cx="254.9499" cy="23" fill="#EB937F" rx="11" ry="11" style="stroke:#181818;stroke-width:1;"/><path d="M259.0593,29 L251.3406,29 L251.3406,16.6094 L259.0593,16.6094 L259.0593,18.7656 L253.7937,18.7656 L253.7937,21.4375 L258.5593,21.4375 L258.5593,23.5938 L253.7937,23.5938 L253.7937,26.8438 L259.0593,26.8438 L259.0593,29 Z " fill="#000000"/><text fill="#000000" font-family="sans-serif" font-size="14" lengthAdjust="spacing" textLength="89.4209" x="270.5121" y="27.8467">ExamPriority</text><line style="stroke:#181818;stroke-width:0.5;" x1="233.92" x2="368.963" y1="39" y2="39"/><text fill="#000000" font-family="sans-serif" font-size="14" lengthAdjust="spacing" textLength="67.5391" x="238.92" y="55.9951">URGENTE</text><text fill="#000000" font-family="sans-serif" font-size="14" lengthAdjust="spacing" textLength="125.043" x="238.92" y="72.292">POUCO_URGENTE</text><text fill="#000000" font-family="sans-serif" font-size="14" lengthAdjust="spacing" textLength="53.4775" x="238.92" y="88.5889">ROTINA</text><line style="stroke:#181818;stroke-width:0.5;" x1="233.92" x2="368.963" y1="95.8906" y2="95.8906"/></g><!--class Exam--><g class="entity" data-entity="Exam" data-source-line="13" data-uid="ent0003" id="entity_Exam"><rect fill="#F1F1F1" height="194.6719" rx="2.5" ry="2.5" style="stroke:#181818;stroke-width:0.5;" width="405.4971" x="811.69" y="378.05"/><ellipse cx="990.5147" cy="394.05" fill="#A9DCDF" rx="11" ry="11" style="stroke:#181818;stroke-width:1;"/><path d="M990.6241,389.3937 L989.4678,394.4719 L991.796,394.4719 L990.6241,389.3937 Z M989.1397,387.1594 L992.1241,387.1594 L995.4835,399.55 L993.0303,399.55 L992.2647,396.4875 L988.9835,396.4875 L988.2335,399.55 L985.796,399.55 L989.1397,387.1594 Z " fill="#000000"/><text fill="#000000" font-family="sans-serif" font-size="14" font-style="italic" lengthAdjust="spacing" textLength="39.3477" x="1011.0147" y="398.8967">Exam</text><line style="stroke:#181818;stroke-width:0.5;" x1="812.69" x2="1216.1871" y1="410.05" y2="410.05"/><rect fill="none" height="6" style="stroke:#C82930;stroke-width:1;" width="6" x="819.69" y="420.6984"/><text fill="#000000" font-family="sans-serif" font-size="14" lengthAdjust="spacing" textLength="112.8135" x="831.69" y="427.0451">patient : Patient</text><rect fill="none" height="6" style="stroke:#C82930;stroke-width:1;" width="6" x="819.69" y="436.9953"/><text fill="#000000" font-family="sans-serif" font-size="14" lengthAdjust="spacing" textLength="149.3857" x="831.69" y="443.342">requestedBy : Doctor</text><rect fill="none" height="6" style="stroke:#C82930;stroke-width:1;" width="6" x="819.69" y="453.2922"/><text fill="#000000" font-family="sans-serif" font-size="14" lengthAdjust="spacing" textLength="153.5557" x="831.69" y="459.6389">priority : ExamPriority</text><rect fill="none" height="6" style="stroke:#C82930;stroke-width:1;" width="6" x="819.69" y="469.5891"/><text fill="#000000" font-family="sans-serif" font-size="14" lengthAdjust="spacing" textLength="136.582" x="831.69" y="475.9357">basePrice : decimal</text><line style="stroke:#181818;stroke-width:0.5;" x1="812.69" x2="1216.1871" y1="483.2375" y2="483.2375"/><rect fill="#F24D5C" height="6" style="stroke:#C82930;stroke-width:1;" width="6" x="819.69" y="493.8859"/><text fill="#000000" font-family="sans-serif" font-size="14" lengthAdjust="spacing" textLength="379.4971" x="831.69" y="500.2326">id : int                    ' gerado por Sequencer (Singleton)</text><ellipse cx="822.69" cy="513.1828" fill="#84BE84" rx="3" ry="3" style="stroke:#038048;stroke-width:1;"/><text fill="#000000" font-family="sans-serif" font-size="14" lengthAdjust="spacing" textLength="170.4063" x="831.69" y="516.5295">getFinalPrice() : decimal</text><ellipse cx="822.69" cy="529.4797" fill="#84BE84" rx="3" ry="3" style="stroke:#038048;stroke-width:1;"/><text fill="#000000" font-family="sans-serif" font-size="14" lengthAdjust="spacing" textLength="137.2861" x="831.69" y="532.8264">performValidation()</text><ellipse cx="822.69" cy="545.7766" fill="#84BE84" rx="3" ry="3" style="stroke:#038048;stroke-width:1;"/><text fill="#000000" font-family="sans-serif" font-size="14" lengthAdjust="spacing" textLength="182.041" x="831.69" y="549.1232">generateReport() : Report</text><ellipse cx="822.69" cy="562.0734" fill="#84BE84" rx="3" ry="3" style="stroke:#038048;stroke-width:1;"/><text fill="#000000" font-family="sans-serif" font-size="14" lengthAdjust="spacing" textLength="100.3311" x="831.69" y="565.4201">notifyPatient()</text></g><!--class Hemogram--><g class="entity" data-entity="Hemogram" data-source-line="25" data-uid="ent0004" id="entity_Hemogram"><rect fill="#F1F1F1" height="48" rx="2.5" ry="2.5" style="stroke:#181818;stroke-width:0.5;" width="110.2031" x="828.34" y="657.87"/><ellipse cx="843.34" cy="673.87" fill="#ADD1B2" rx="11" ry="11" style="stroke:#181818;stroke-width:1;"/><path d="M846.3088,679.5106 Q845.7306,679.8075 845.09,679.9481 Q844.4494,680.1044 843.7463,680.1044 Q841.2463,680.1044 839.9181,678.4638 Q838.6056,676.8075 838.6056,673.6825 Q838.6056,670.5575 839.9181,668.9013 Q841.2463,667.245 843.7463,667.245 Q844.4494,667.245 845.09,667.4013 Q845.7463,667.5575 846.3088,667.8544 L846.3088,670.5731 Q845.6838,669.995 845.09,669.7294 Q844.4963,669.4481 843.8713,669.4481 Q842.5275,669.4481 841.84,670.5263 Q841.1525,671.5888 841.1525,673.6825 Q841.1525,675.7763 841.84,676.8544 Q842.5275,677.9169 843.8713,677.9169 Q844.4963,677.9169 845.09,677.6513 Q845.6838,677.37 846.3088,676.7919 L846.3088,679.5106 Z " fill="#000000"/><text fill="#000000" font-family="sans-serif" font-size="14" lengthAdjust="spacing" textLength="78.2031" x="857.34" y="678.7167">Hemogram</text><line style="stroke:#181818;stroke-width:0.5;" x1="829.34" x2="937.5431" y1="689.87" y2="689.87"/><line style="stroke:#181818;stroke-width:0.5;" x1="829.34" x2="937.5431" y1="697.87" y2="697.87"/></g><!--class Ultrasound--><g class="entity" data-entity="Ultrasound" data-source-line="26" data-uid="ent0006" id="entity_Ultrasound"><rect fill="#F1F1F1" height="48" rx="2.5" ry="2.5" style="stroke:#181818;stroke-width:0.5;" width="108.4531" x="973.21" y="657.87"/><ellipse cx="988.21" cy="673.87" fill="#ADD1B2" rx="11" ry="11" style="stroke:#181818;stroke-width:1;"/><path d="M991.1788,679.5106 Q990.6006,679.8075 989.96,679.9481 Q989.3194,680.1044 988.6163,680.1044 Q986.1163,680.1044 984.7881,678.4638 Q983.4756,676.8075 983.4756,673.6825 Q983.4756,670.5575 984.7881,668.9013 Q986.1163,667.245 988.6163,667.245 Q989.3194,667.245 989.96,667.4013 Q990.6163,667.5575 991.1788,667.8544 L991.1788,670.5731 Q990.5538,669.995 989.96,669.7294 Q989.3663,669.4481 988.7413,669.4481 Q987.3975,669.4481 986.71,670.5263 Q986.0225,671.5888 986.0225,673.6825 Q986.0225,675.7763 986.71,676.8544 Q987.3975,677.9169 988.7413,677.9169 Q989.3663,677.9169 989.96,677.6513 Q990.5538,677.37 991.1788,676.7919 L991.1788,679.5106 Z " fill="#000000"/><text fill="#000000" font-family="sans-serif" font-size="14" lengthAdjust="spacing" textLength="76.4531" x="1002.21" y="678.7167">Ultrasound</text><line style="stroke:#181818;stroke-width:0.5;" x1="974.21" x2="1080.6631" y1="689.87" y2="689.87"/><line style="stroke:#181818;stroke-width:0.5;" x1="974.21" x2="1080.6631" y1="697.87" y2="697.87"/></g><!--class MRI--><g class="entity" data-entity="MRI" data-source-line="27" data-uid="ent0008" id="entity_MRI"><rect fill="#F1F1F1" height="48" rx="2.5" ry="2.5" style="stroke:#181818;stroke-width:0.5;" width="57.9355" x="1116.47" y="657.87"/><ellipse cx="1131.47" cy="673.87" fill="#ADD1B2" rx="11" ry="11" style="stroke:#181818;stroke-width:1;"/><path d="M1134.4388,679.5106 Q1133.8606,679.8075 1133.22,679.9481 Q1132.5794,680.1044 1131.8763,680.1044 Q1129.3763,680.1044 1128.0481,678.4638 Q1126.7356,676.8075 1126.7356,673.6825 Q1126.7356,670.5575 1128.0481,668.9013 Q1129.3763,667.245 1131.8763,667.245 Q1132.5794,667.245 1133.22,667.4013 Q1133.8763,667.5575 1134.4388,667.8544 L1134.4388,670.5731 Q1133.8138,669.995 1133.22,669.7294 Q1132.6263,669.4481 1132.0013,669.4481 Q1130.6575,669.4481 1129.97,670.5263 Q1129.2825,671.5888 1129.2825,673.6825 Q1129.2825,675.7763 1129.97,676.8544 Q1130.6575,677.9169 1132.0013,677.9169 Q1132.6263,677.9169 1133.22,677.6513 Q1133.8138,677.37 1134.4388,676.7919 L1134.4388,679.5106 Z " fill="#000000"/><text fill="#000000" font-family="sans-serif" font-size="14" lengthAdjust="spacing" textLength="25.9355" x="1145.47" y="678.7167">MRI</text><line style="stroke:#181818;stroke-width:0.5;" x1="1117.47" x2="1173.4055" y1="689.87" y2="689.87"/><line style="stroke:#181818;stroke-width:0.5;" x1="1117.47" x2="1173.4055" y1="697.87" y2="697.87"/></g><!--class Patient--><g class="entity" data-entity="Patient" data-source-line="29" data-uid="ent0010" id="entity_Patient"><rect fill="#F1F1F1" height="48" rx="2.5" ry="2.5" style="stroke:#181818;stroke-width:0.5;" width="81.376" x="404.75" y="31.45"/><ellipse cx="419.75" cy="47.45" fill="#ADD1B2" rx="11" ry="11" style="stroke:#181818;stroke-width:1;"/><path d="M422.7188,53.0906 Q422.1406,53.3875 421.5,53.5281 Q420.8594,53.6844 420.1563,53.6844 Q417.6563,53.6844 416.3281,52.0437 Q415.0156,50.3875 415.0156,47.2625 Q415.0156,44.1375 416.3281,42.4812 Q417.6563,40.825 420.1563,40.825 Q420.8594,40.825 421.5,40.9812 Q422.1563,41.1375 422.7188,41.4344 L422.7188,44.1531 Q422.0938,43.575 421.5,43.3094 Q420.9063,43.0281 420.2813,43.0281 Q418.9375,43.0281 418.25,44.1062 Q417.5625,45.1687 417.5625,47.2625 Q417.5625,49.3562 418.25,50.4344 Q418.9375,51.4969 420.2813,51.4969 Q420.9063,51.4969 421.5,51.2312 Q422.0938,50.95 422.7188,50.3719 L422.7188,53.0906 Z " fill="#000000"/><text fill="#000000" font-family="sans-serif" font-size="14" lengthAdjust="spacing" textLength="49.376" x="433.75" y="52.2967">Patient</text><line style="stroke:#181818;stroke-width:0.5;" x1="405.75" x2="485.126" y1="63.45" y2="63.45"/><line style="stroke:#181818;stroke-width:0.5;" x1="405.75" x2="485.126" y1="71.45" y2="71.45"/></g><!--class Doctor--><g class="entity" data-entity="Doctor" data-source-line="30" data-uid="ent0011" id="entity_Doctor"><rect fill="#F1F1F1" height="48" rx="2.5" ry="2.5" style="stroke:#181818;stroke-width:0.5;" width="78.8535" x="262.01" y="185.32"/><ellipse cx="277.01" cy="201.32" fill="#ADD1B2" rx="11" ry="11" style="stroke:#181818;stroke-width:1;"/><path d="M279.9788,206.9606 Q279.4006,207.2575 278.76,207.3981 Q278.1194,207.5544 277.4163,207.5544 Q274.9163,207.5544 273.5881,205.9137 Q272.2756,204.2575 272.2756,201.1325 Q272.2756,198.0075 273.5881,196.3512 Q274.9163,194.695 277.4163,194.695 Q278.1194,194.695 278.76,194.8512 Q279.4163,195.0075 279.9788,195.3044 L279.9788,198.0231 Q279.3538,197.445 278.76,197.1794 Q278.1663,196.8981 277.5413,196.8981 Q276.1975,196.8981 275.51,197.9762 Q274.8225,199.0387 274.8225,201.1325 Q274.8225,203.2262 275.51,204.3044 Q276.1975,205.3669 277.5413,205.3669 Q278.1663,205.3669 278.76,205.1012 Q279.3538,204.82 279.9788,204.2419 L279.9788,206.9606 Z " fill="#000000"/><text fill="#000000" font-family="sans-serif" font-size="14" lengthAdjust="spacing" textLength="46.8535" x="291.01" y="206.1667">Doctor</text><line style="stroke:#181818;stroke-width:0.5;" x1="263.01" x2="339.8635" y1="217.32" y2="217.32"/><line style="stroke:#181818;stroke-width:0.5;" x1="263.01" x2="339.8635" y1="225.32" y2="225.32"/></g><!--class Report--><g class="entity" data-entity="Report" data-source-line="31" data-uid="ent0012" id="entity_Report"><rect fill="#F1F1F1" height="48" rx="2.5" ry="2.5" style="stroke:#181818;stroke-width:0.5;" width="79.0381" x="375.92" y="185.32"/><ellipse cx="390.92" cy="201.32" fill="#ADD1B2" rx="11" ry="11" style="stroke:#181818;stroke-width:1;"/><path d="M393.8888,206.9606 Q393.3106,207.2575 392.67,207.3981 Q392.0294,207.5544 391.3263,207.5544 Q388.8263,207.5544 387.4981,205.9137 Q386.1856,204.2575 386.1856,201.1325 Q386.1856,198.0075 387.4981,196.3512 Q388.8263,194.695 391.3263,194.695 Q392.0294,194.695 392.67,194.8512 Q393.3263,195.0075 393.8888,195.3044 L393.8888,198.0231 Q393.2638,197.445 392.67,197.1794 Q392.0763,196.8981 391.4513,196.8981 Q390.1075,196.8981 389.42,197.9762 Q388.7325,199.0387 388.7325,201.1325 Q388.7325,203.2262 389.42,204.3044 Q390.1075,205.3669 391.4513,205.3669 Q392.0763,205.3669 392.67,205.1012 Q393.2638,204.82 393.8888,204.2419 L393.8888,206.9606 Z " fill="#000000"/><text fill="#000000" font-family="sans-serif" font-size="14" lengthAdjust="spacing" textLength="47.0381" x="404.92" y="206.1667">Report</text><line style="stroke:#181818;stroke-width:0.5;" x1="376.92" x2="453.9581" y1="217.32" y2="217.32"/><line style="stroke:#181818;stroke-width:0.5;" x1="376.92" x2="453.9581" y1="225.32" y2="225.32"/></g><!--class ValidationStrategy--><g class="entity" data-entity="ValidationStrategy" data-source-line="34" data-uid="ent0013" id="entity_ValidationStrategy"><rect fill="#F1F1F1" height="64.2969" rx="2.5" ry="2.5" style="stroke:#181818;stroke-width:0.5;" width="185.2158" x="1541.83" y="649.72"/><ellipse cx="1567.1853" cy="665.72" fill="#B4A7E5" rx="11" ry="11" style="stroke:#181818;stroke-width:1;"/><path d="M1563.1071,661.4856 L1563.1071,659.3294 L1570.4978,659.3294 L1570.4978,661.4856 L1568.029,661.4856 L1568.029,669.5638 L1570.4978,669.5638 L1570.4978,671.72 L1563.1071,671.72 L1563.1071,669.5638 L1565.5759,669.5638 L1565.5759,661.4856 L1563.1071,661.4856 Z " fill="#000000"/><text fill="#000000" font-family="sans-serif" font-size="14" font-style="italic" lengthAdjust="spacing" textLength="130.2041" x="1583.4864" y="670.5667">ValidationStrategy</text><line style="stroke:#181818;stroke-width:0.5;" x1="1542.83" x2="1726.0458" y1="681.72" y2="681.72"/><line style="stroke:#181818;stroke-width:0.5;" x1="1542.83" x2="1726.0458" y1="689.72" y2="689.72"/><ellipse cx="1552.83" cy="703.3684" fill="#84BE84" rx="3" ry="3" style="stroke:#038048;stroke-width:1;"/><text fill="#000000" font-family="sans-serif" font-size="14" lengthAdjust="spacing" textLength="159.2158" x="1561.83" y="706.7151">validate(exam : Exam)</text></g><!--class HemogramValidation--><g class="entity" data-entity="HemogramValidation" data-source-line="37" data-uid="ent0014" id="entity_HemogramValidation"><rect fill="#F1F1F1" height="48" rx="2.5" ry="2.5" style="stroke:#181818;stroke-width:0.5;" width="180.4219" x="1436.23" y="775.02"/><ellipse cx="1451.23" cy="791.02" fill="#ADD1B2" rx="11" ry="11" style="stroke:#181818;stroke-width:1;"/><path d="M1454.1988,796.6606 Q1453.6206,796.9575 1452.98,797.0981 Q1452.3394,797.2544 1451.6363,797.2544 Q1449.1363,797.2544 1447.8081,795.6138 Q1446.4956,793.9575 1446.4956,790.8325 Q1446.4956,787.7075 1447.8081,786.0513 Q1449.1363,784.395 1451.6363,784.395 Q1452.3394,784.395 1452.98,784.5513 Q1453.6363,784.7075 1454.1988,785.0044 L1454.1988,787.7231 Q1453.5738,787.145 1452.98,786.8794 Q1452.3863,786.5981 1451.7613,786.5981 Q1450.4175,786.5981 1449.73,787.6763 Q1449.0425,788.7388 1449.0425,790.8325 Q1449.0425,792.9263 1449.73,794.0044 Q1450.4175,795.0669 1451.7613,795.0669 Q1452.3863,795.0669 1452.98,794.8013 Q1453.5738,794.52 1454.1988,793.9419 L1454.1988,796.6606 Z " fill="#000000"/><text fill="#000000" font-family="sans-serif" font-size="14" lengthAdjust="spacing" textLength="148.4219" x="1465.23" y="795.8667">HemogramValidation</text><line style="stroke:#181818;stroke-width:0.5;" x1="1437.23" x2="1615.6519" y1="807.02" y2="807.02"/><line style="stroke:#181818;stroke-width:0.5;" x1="1437.23" x2="1615.6519" y1="815.02" y2="815.02"/></g><!--class MRIValidation--><g class="entity" data-entity="MRIValidation" data-source-line="38" data-uid="ent0016" id="entity_MRIValidation"><rect fill="#F1F1F1" height="48" rx="2.5" ry="2.5" style="stroke:#181818;stroke-width:0.5;" width="128.1543" x="1651.36" y="775.02"/><ellipse cx="1666.36" cy="791.02" fill="#ADD1B2" rx="11" ry="11" style="stroke:#181818;stroke-width:1;"/><path d="M1669.3288,796.6606 Q1668.7506,796.9575 1668.11,797.0981 Q1667.4694,797.2544 1666.7663,797.2544 Q1664.2663,797.2544 1662.9381,795.6138 Q1661.6256,793.9575 1661.6256,790.8325 Q1661.6256,787.7075 1662.9381,786.0513 Q1664.2663,784.395 1666.7663,784.395 Q1667.4694,784.395 1668.11,784.5513 Q1668.7663,784.7075 1669.3288,785.0044 L1669.3288,787.7231 Q1668.7038,787.145 1668.11,786.8794 Q1667.5163,786.5981 1666.8913,786.5981 Q1665.5475,786.5981 1664.86,787.6763 Q1664.1725,788.7388 1664.1725,790.8325 Q1664.1725,792.9263 1664.86,794.0044 Q1665.5475,795.0669 1666.8913,795.0669 Q1667.5163,795.0669 1668.11,794.8013 Q1668.7038,794.52 1669.3288,793.9419 L1669.3288,796.6606 Z " fill="#000000"/><text fill="#000000" font-family="sans-serif" font-size="14" lengthAdjust="spacing" textLength="96.1543" x="1680.36" y="795.8667">MRIValidation</text><line style="stroke:#181818;stroke-width:0.5;" x1="1652.36" x2="1778.5143" y1="807.02" y2="807.02"/><line style="stroke:#181818;stroke-width:0.5;" x1="1652.36" x2="1778.5143" y1="815.02" y2="815.02"/></g><!--class DefaultValidation--><g class="entity" data-entity="DefaultValidation" data-source-line="39" data-uid="ent0018" id="entity_DefaultValidation"><rect fill="#F1F1F1" height="48" rx="2.5" ry="2.5" style="stroke:#181818;stroke-width:0.5;" width="153.3721" x="1814.75" y="775.02"/><ellipse cx="1829.75" cy="791.02" fill="#ADD1B2" rx="11" ry="11" style="stroke:#181818;stroke-width:1;"/><path d="M1832.7188,796.6606 Q1832.1406,796.9575 1831.5,797.0981 Q1830.8594,797.2544 1830.1563,797.2544 Q1827.6563,797.2544 1826.3281,795.6138 Q1825.0156,793.9575 1825.0156,790.8325 Q1825.0156,787.7075 1826.3281,786.0513 Q1827.6563,784.395 1830.1563,784.395 Q1830.8594,784.395 1831.5,784.5513 Q1832.1563,784.7075 1832.7188,785.0044 L1832.7188,787.7231 Q1832.0938,787.145 1831.5,786.8794 Q1830.9063,786.5981 1830.2813,786.5981 Q1828.9375,786.5981 1828.25,787.6763 Q1827.5625,788.7388 1827.5625,790.8325 Q1827.5625,792.9263 1828.25,794.0044 Q1828.9375,795.0669 1830.2813,795.0669 Q1830.9063,795.0669 1831.5,794.8013 Q1832.0938,794.52 1832.7188,793.9419 L1832.7188,796.6606 Z " fill="#000000"/><text fill="#000000" font-family="sans-serif" font-size="14" lengthAdjust="spacing" textLength="121.3721" x="1843.75" y="795.8667">DefaultValidation</text><line style="stroke:#181818;stroke-width:0.5;" x1="1815.75" x2="1967.1221" y1="807.02" y2="807.02"/><line style="stroke:#181818;stroke-width:0.5;" x1="1815.75" x2="1967.1221" y1="815.02" y2="815.02"/></g><!--class ReportFormatter--><g class="entity" data-entity="ReportFormatter" data-source-line="42" data-uid="ent0020" id="entity_ReportFormatter"><rect fill="#F1F1F1" height="64.2969" rx="2.5" ry="2.5" style="stroke:#181818;stroke-width:0.5;" width="236.6152" x="226.13" y="649.72"/><ellipse cx="281.6993" cy="665.72" fill="#B4A7E5" rx="11" ry="11" style="stroke:#181818;stroke-width:1;"/><path d="M277.6212,661.4856 L277.6212,659.3294 L285.0118,659.3294 L285.0118,661.4856 L282.5431,661.4856 L282.5431,669.5638 L285.0118,669.5638 L285.0118,671.72 L277.6212,671.72 L277.6212,669.5638 L280.09,669.5638 L280.09,661.4856 L277.6212,661.4856 Z " fill="#000000"/><text fill="#000000" font-family="sans-serif" font-size="14" font-style="italic" lengthAdjust="spacing" textLength="116.9766" x="302.1993" y="670.5667">ReportFormatter</text><line style="stroke:#181818;stroke-width:0.5;" x1="227.13" x2="461.7452" y1="681.72" y2="681.72"/><line style="stroke:#181818;stroke-width:0.5;" x1="227.13" x2="461.7452" y1="689.72" y2="689.72"/><ellipse cx="237.13" cy="703.3684" fill="#84BE84" rx="3" ry="3" style="stroke:#038048;stroke-width:1;"/><text fill="#000000" font-family="sans-serif" font-size="14" lengthAdjust="spacing" textLength="210.6152" x="246.13" y="706.7151">format(exam : Exam) : Report</text></g><!--class TextFormatter--><g class="entity" data-entity="TextFormatter" data-source-line="45" data-uid="ent0021" id="entity_TextFormatter"><rect fill="#F1F1F1" height="48" rx="2.5" ry="2.5" style="stroke:#181818;stroke-width:0.5;" width="132.8779" x="7" y="775.02"/><ellipse cx="22" cy="791.02" fill="#ADD1B2" rx="11" ry="11" style="stroke:#181818;stroke-width:1;"/><path d="M24.9688,796.6606 Q24.3906,796.9575 23.75,797.0981 Q23.1094,797.2544 22.4063,797.2544 Q19.9063,797.2544 18.5781,795.6138 Q17.2656,793.9575 17.2656,790.8325 Q17.2656,787.7075 18.5781,786.0513 Q19.9063,784.395 22.4063,784.395 Q23.1094,784.395 23.75,784.5513 Q24.4063,784.7075 24.9688,785.0044 L24.9688,787.7231 Q24.3438,787.145 23.75,786.8794 Q23.1563,786.5981 22.5313,786.5981 Q21.1875,786.5981 20.5,787.6763 Q19.8125,788.7388 19.8125,790.8325 Q19.8125,792.9263 20.5,794.0044 Q21.1875,795.0669 22.5313,795.0669 Q23.1563,795.0669 23.75,794.8013 Q24.3438,794.52 24.9688,793.9419 L24.9688,796.6606 Z " fill="#000000"/><text fill="#000000" font-family="sans-serif" font-size="14" lengthAdjust="spacing" textLength="100.8779" x="36" y="795.8667">TextFormatter</text><line style="stroke:#181818;stroke-width:0.5;" x1="8" x2="138.8779" y1="807.02" y2="807.02"/><line style="stroke:#181818;stroke-width:0.5;" x1="8" x2="138.8779" y1="815.02" y2="815.02"/></g><!--class HtmlFormatter--><g class="entity" data-entity="HtmlFormatter" data-source-line="46" data-uid="ent0023" id="entity_HtmlFormatter"><rect fill="#F1F1F1" height="48" rx="2.5" ry="2.5" style="stroke:#181818;stroke-width:0.5;" width="135.4824" x="174.7" y="775.02"/><ellipse cx="189.7" cy="791.02" fill="#ADD1B2" rx="11" ry="11" style="stroke:#181818;stroke-width:1;"/><path d="M192.6688,796.6606 Q192.0906,796.9575 191.45,797.0981 Q190.8094,797.2544 190.1063,797.2544 Q187.6063,797.2544 186.2781,795.6138 Q184.9656,793.9575 184.9656,790.8325 Q184.9656,787.7075 186.2781,786.0513 Q187.6063,784.395 190.1063,784.395 Q190.8094,784.395 191.45,784.5513 Q192.1063,784.7075 192.6688,785.0044 L192.6688,787.7231 Q192.0438,787.145 191.45,786.8794 Q190.8563,786.5981 190.2313,786.5981 Q188.8875,786.5981 188.2,787.6763 Q187.5125,788.7388 187.5125,790.8325 Q187.5125,792.9263 188.2,794.0044 Q188.8875,795.0669 190.2313,795.0669 Q190.8563,795.0669 191.45,794.8013 Q192.0438,794.52 192.6688,793.9419 L192.6688,796.6606 Z " fill="#000000"/><text fill="#000000" font-family="sans-serif" font-size="14" lengthAdjust="spacing" textLength="103.4824" x="203.7" y="795.8667">HtmlFormatter</text><line style="stroke:#181818;stroke-width:0.5;" x1="175.7" x2="309.1824" y1="807.02" y2="807.02"/><line style="stroke:#181818;stroke-width:0.5;" x1="175.7" x2="309.1824" y1="815.02" y2="815.02"/></g><!--class PdfFormatter--><g class="entity" data-entity="PdfFormatter" data-source-line="47" data-uid="ent0025" id="entity_PdfFormatter"><rect fill="#F1F1F1" height="48" rx="2.5" ry="2.5" style="stroke:#181818;stroke-width:0.5;" width="124.1963" x="345.34" y="775.02"/><ellipse cx="360.34" cy="791.02" fill="#ADD1B2" rx="11" ry="11" style="stroke:#181818;stroke-width:1;"/><path d="M363.3088,796.6606 Q362.7306,796.9575 362.09,797.0981 Q361.4494,797.2544 360.7463,797.2544 Q358.2463,797.2544 356.9181,795.6138 Q355.6056,793.9575 355.6056,790.8325 Q355.6056,787.7075 356.9181,786.0513 Q358.2463,784.395 360.7463,784.395 Q361.4494,784.395 362.09,784.5513 Q362.7463,784.7075 363.3088,785.0044 L363.3088,787.7231 Q362.6838,787.145 362.09,786.8794 Q361.4963,786.5981 360.8713,786.5981 Q359.5275,786.5981 358.84,787.6763 Q358.1525,788.7388 358.1525,790.8325 Q358.1525,792.9263 358.84,794.0044 Q359.5275,795.0669 360.8713,795.0669 Q361.4963,795.0669 362.09,794.8013 Q362.6838,794.52 363.3088,793.9419 L363.3088,796.6606 Z " fill="#000000"/><text fill="#000000" font-family="sans-serif" font-size="14" lengthAdjust="spacing" textLength="92.1963" x="374.34" y="795.8667">PdfFormatter</text><line style="stroke:#181818;stroke-width:0.5;" x1="346.34" x2="468.5363" y1="807.02" y2="807.02"/><line style="stroke:#181818;stroke-width:0.5;" x1="346.34" x2="468.5363" y1="815.02" y2="815.02"/></g><!--class Notifier--><g class="entity" data-entity="Notifier" data-source-line="50" data-uid="ent0027" id="entity_Notifier"><rect fill="#F1F1F1" height="64.2969" rx="2.5" ry="2.5" style="stroke:#181818;stroke-width:0.5;" width="296.0264" x="497.43" y="649.72"/><ellipse cx="615.3909" cy="665.72" fill="#B4A7E5" rx="11" ry="11" style="stroke:#181818;stroke-width:1;"/><path d="M611.3128,661.4856 L611.3128,659.3294 L618.7034,659.3294 L618.7034,661.4856 L616.2347,661.4856 L616.2347,669.5638 L618.7034,669.5638 L618.7034,671.72 L611.3128,671.72 L611.3128,669.5638 L613.7816,669.5638 L613.7816,661.4856 L611.3128,661.4856 Z " fill="#000000"/><text fill="#000000" font-family="sans-serif" font-size="14" font-style="italic" lengthAdjust="spacing" textLength="51.6045" x="635.8909" y="670.5667">Notifier</text><line style="stroke:#181818;stroke-width:0.5;" x1="498.43" x2="792.4564" y1="681.72" y2="681.72"/><line style="stroke:#181818;stroke-width:0.5;" x1="498.43" x2="792.4564" y1="689.72" y2="689.72"/><ellipse cx="508.43" cy="703.3684" fill="#84BE84" rx="3" ry="3" style="stroke:#038048;stroke-width:1;"/><text fill="#000000" font-family="sans-serif" font-size="14" lengthAdjust="spacing" textLength="270.0264" x="517.43" y="706.7151">send(report : Report, patient : Patient)</text></g><!--class WhatsAppNotifier--><g class="entity" data-entity="WhatsAppNotifier" data-source-line="53" data-uid="ent0028" id="entity_WhatsAppNotifier"><rect fill="#F1F1F1" height="48" rx="2.5" ry="2.5" style="stroke:#181818;stroke-width:0.5;" width="155.0332" x="504.92" y="775.02"/><ellipse cx="519.92" cy="791.02" fill="#ADD1B2" rx="11" ry="11" style="stroke:#181818;stroke-width:1;"/><path d="M522.8888,796.6606 Q522.3106,796.9575 521.67,797.0981 Q521.0294,797.2544 520.3263,797.2544 Q517.8263,797.2544 516.4981,795.6138 Q515.1856,793.9575 515.1856,790.8325 Q515.1856,787.7075 516.4981,786.0513 Q517.8263,784.395 520.3263,784.395 Q521.0294,784.395 521.67,784.5513 Q522.3263,784.7075 522.8888,785.0044 L522.8888,787.7231 Q522.2638,787.145 521.67,786.8794 Q521.0763,786.5981 520.4513,786.5981 Q519.1075,786.5981 518.42,787.6763 Q517.7325,788.7388 517.7325,790.8325 Q517.7325,792.9263 518.42,794.0044 Q519.1075,795.0669 520.4513,795.0669 Q521.0763,795.0669 521.67,794.8013 Q522.2638,794.52 522.8888,793.9419 L522.8888,796.6606 Z " fill="#000000"/><text fill="#000000" font-family="sans-serif" font-size="14" lengthAdjust="spacing" textLength="123.0332" x="533.92" y="795.8667">WhatsAppNotifier</text><line style="stroke:#181818;stroke-width:0.5;" x1="505.92" x2="658.9532" y1="807.02" y2="807.02"/><line style="stroke:#181818;stroke-width:0.5;" x1="505.92" x2="658.9532" y1="815.02" y2="815.02"/></g><!--class EmailNotifier--><g class="entity" data-entity="EmailNotifier" data-source-line="54" data-uid="ent0030" id="entity_EmailNotifier"><rect fill="#F1F1F1" height="48" rx="2.5" ry="2.5" style="stroke:#181818;stroke-width:0.5;" width="122.4463" x="695.22" y="775.02"/><ellipse cx="710.22" cy="791.02" fill="#ADD1B2" rx="11" ry="11" style="stroke:#181818;stroke-width:1;"/><path d="M713.1888,796.6606 Q712.6106,796.9575 711.97,797.0981 Q711.3294,797.2544 710.6263,797.2544 Q708.1263,797.2544 706.7981,795.6138 Q705.4856,793.9575 705.4856,790.8325 Q705.4856,787.7075 706.7981,786.0513 Q708.1263,784.395 710.6263,784.395 Q711.3294,784.395 711.97,784.5513 Q712.6263,784.7075 713.1888,785.0044 L713.1888,787.7231 Q712.5638,787.145 711.97,786.8794 Q711.3763,786.5981 710.7513,786.5981 Q709.4075,786.5981 708.72,787.6763 Q708.0325,788.7388 708.0325,790.8325 Q708.0325,792.9263 708.72,794.0044 Q709.4075,795.0669 710.7513,795.0669 Q711.3763,795.0669 711.97,794.8013 Q712.5638,794.52 713.1888,793.9419 L713.1888,796.6606 Z " fill="#000000"/><text fill="#000000" font-family="sans-serif" font-size="14" lengthAdjust="spacing" textLength="90.4463" x="724.22" y="795.8667">EmailNotifier</text><line style="stroke:#181818;stroke-width:0.5;" x1="696.22" x2="816.6663" y1="807.02" y2="807.02"/><line style="stroke:#181818;stroke-width:0.5;" x1="696.22" x2="816.6663" y1="815.02" y2="815.02"/></g><!--class SmsNotifier--><g class="entity" data-entity="SmsNotifier" data-source-line="55" data-uid="ent0032" id="entity_SmsNotifier"><rect fill="#F1F1F1" height="48" rx="2.5" ry="2.5" style="stroke:#181818;stroke-width:0.5;" width="113.4229" x="852.73" y="775.02"/><ellipse cx="867.73" cy="791.02" fill="#ADD1B2" rx="11" ry="11" style="stroke:#181818;stroke-width:1;"/><path d="M870.6988,796.6606 Q870.1206,796.9575 869.48,797.0981 Q868.8394,797.2544 868.1363,797.2544 Q865.6363,797.2544 864.3081,795.6138 Q862.9956,793.9575 862.9956,790.8325 Q862.9956,787.7075 864.3081,786.0513 Q865.6363,784.395 868.1363,784.395 Q868.8394,784.395 869.48,784.5513 Q870.1363,784.7075 870.6988,785.0044 L870.6988,787.7231 Q870.0738,787.145 869.48,786.8794 Q868.8863,786.5981 868.2613,786.5981 Q866.9175,786.5981 866.23,787.6763 Q865.5425,788.7388 865.5425,790.8325 Q865.5425,792.9263 866.23,794.0044 Q866.9175,795.0669 868.2613,795.0669 Q868.8863,795.0669 869.48,794.8013 Q870.0738,794.52 870.6988,793.9419 L870.6988,796.6606 Z " fill="#000000"/><text fill="#000000" font-family="sans-serif" font-size="14" lengthAdjust="spacing" textLength="81.4229" x="881.73" y="795.8667">SmsNotifier</text><line style="stroke:#181818;stroke-width:0.5;" x1="853.73" x2="965.1529" y1="807.02" y2="807.02"/><line style="stroke:#181818;stroke-width:0.5;" x1="853.73" x2="965.1529" y1="815.02" y2="815.02"/></g><!--class DiscountPolicy--><g class="entity" data-entity="DiscountPolicy" data-source-line="58" data-uid="ent0034" id="entity_DiscountPolicy"><rect fill="#F1F1F1" height="64.2969" rx="2.5" ry="2.5" style="stroke:#181818;stroke-width:0.5;" width="246.4453" x="1209.22" y="649.72"/><ellipse cx="1277.0769" cy="665.72" fill="#B4A7E5" rx="11" ry="11" style="stroke:#181818;stroke-width:1;"/><path d="M1272.9988,661.4856 L1272.9988,659.3294 L1280.3894,659.3294 L1280.3894,661.4856 L1277.9207,661.4856 L1277.9207,669.5638 L1280.3894,669.5638 L1280.3894,671.72 L1272.9988,671.72 L1272.9988,669.5638 L1275.4676,669.5638 L1275.4676,661.4856 L1272.9988,661.4856 Z " fill="#000000"/><text fill="#000000" font-family="sans-serif" font-size="14" font-style="italic" lengthAdjust="spacing" textLength="102.2314" x="1297.5769" y="670.5667">DiscountPolicy</text><line style="stroke:#181818;stroke-width:0.5;" x1="1210.22" x2="1454.6653" y1="681.72" y2="681.72"/><line style="stroke:#181818;stroke-width:0.5;" x1="1210.22" x2="1454.6653" y1="689.72" y2="689.72"/><ellipse cx="1220.22" cy="703.3684" fill="#84BE84" rx="3" ry="3" style="stroke:#038048;stroke-width:1;"/><text fill="#000000" font-family="sans-serif" font-size="14" lengthAdjust="spacing" textLength="220.4453" x="1229.22" y="706.7151">apply(base : decimal) : decimal</text></g><!--class ConvenioDiscount--><g class="entity" data-entity="ConvenioDiscount" data-source-line="61" data-uid="ent0035" id="entity_ConvenioDiscount"><rect fill="#F1F1F1" height="48" rx="2.5" ry="2.5" style="stroke:#181818;stroke-width:0.5;" width="158.9023" x="1069.99" y="775.02"/><ellipse cx="1084.99" cy="791.02" fill="#ADD1B2" rx="11" ry="11" style="stroke:#181818;stroke-width:1;"/><path d="M1087.9588,796.6606 Q1087.3806,796.9575 1086.74,797.0981 Q1086.0994,797.2544 1085.3963,797.2544 Q1082.8963,797.2544 1081.5681,795.6138 Q1080.2556,793.9575 1080.2556,790.8325 Q1080.2556,787.7075 1081.5681,786.0513 Q1082.8963,784.395 1085.3963,784.395 Q1086.0994,784.395 1086.74,784.5513 Q1087.3963,784.7075 1087.9588,785.0044 L1087.9588,787.7231 Q1087.3338,787.145 1086.74,786.8794 Q1086.1463,786.5981 1085.5213,786.5981 Q1084.1775,786.5981 1083.49,787.6763 Q1082.8025,788.7388 1082.8025,790.8325 Q1082.8025,792.9263 1083.49,794.0044 Q1084.1775,795.0669 1085.5213,795.0669 Q1086.1463,795.0669 1086.74,794.8013 Q1087.3338,794.52 1087.9588,793.9419 L1087.9588,796.6606 Z " fill="#000000"/><text fill="#000000" font-family="sans-serif" font-size="14" lengthAdjust="spacing" textLength="126.9023" x="1098.99" y="795.8667">ConvenioDiscount</text><line style="stroke:#181818;stroke-width:0.5;" x1="1070.99" x2="1227.8923" y1="807.02" y2="807.02"/><line style="stroke:#181818;stroke-width:0.5;" x1="1070.99" x2="1227.8923" y1="815.02" y2="815.02"/></g><!--class SeniorDiscount--><g class="entity" data-entity="SeniorDiscount" data-source-line="62" data-uid="ent0037" id="entity_SeniorDiscount"><rect fill="#F1F1F1" height="48" rx="2.5" ry="2.5" style="stroke:#181818;stroke-width:0.5;" width="138.0459" x="1263.42" y="775.02"/><ellipse cx="1278.42" cy="791.02" fill="#ADD1B2" rx="11" ry="11" style="stroke:#181818;stroke-width:1;"/><path d="M1281.3888,796.6606 Q1280.8106,796.9575 1280.17,797.0981 Q1279.5294,797.2544 1278.8263,797.2544 Q1276.3263,797.2544 1274.9981,795.6138 Q1273.6856,793.9575 1273.6856,790.8325 Q1273.6856,787.7075 1274.9981,786.0513 Q1276.3263,784.395 1278.8263,784.395 Q1279.5294,784.395 1280.17,784.5513 Q1280.8263,784.7075 1281.3888,785.0044 L1281.3888,787.7231 Q1280.7638,787.145 1280.17,786.8794 Q1279.5763,786.5981 1278.9513,786.5981 Q1277.6075,786.5981 1276.92,787.6763 Q1276.2325,788.7388 1276.2325,790.8325 Q1276.2325,792.9263 1276.92,794.0044 Q1277.6075,795.0669 1278.9513,795.0669 Q1279.5763,795.0669 1280.17,794.8013 Q1280.7638,794.52 1281.3888,793.9419 L1281.3888,796.6606 Z " fill="#000000"/><text fill="#000000" font-family="sans-serif" font-size="14" lengthAdjust="spacing" textLength="106.0459" x="1292.42" y="795.8667">SeniorDiscount</text><line style="stroke:#181818;stroke-width:0.5;" x1="1264.42" x2="1400.4659" y1="807.02" y2="807.02"/><line style="stroke:#181818;stroke-width:0.5;" x1="1264.42" x2="1400.4659" y1="815.02" y2="815.02"/></g><!--class ExamFactory--><g class="entity" data-entity="ExamFactory" data-source-line="65" data-uid="ent0039" id="entity_ExamFactory"><rect fill="#F1F1F1" height="64.2969" rx="2.5" ry="2.5" style="stroke:#181818;stroke-width:0.5;" width="243.5605" x="1065.66" y="177.18"/><ellipse cx="1137.304" cy="193.18" fill="#ADD1B2" rx="11" ry="11" style="stroke:#181818;stroke-width:1;"/><path d="M1140.2728,198.8206 Q1139.6947,199.1175 1139.054,199.2581 Q1138.4134,199.4144 1137.7103,199.4144 Q1135.2103,199.4144 1133.8822,197.7737 Q1132.5697,196.1175 1132.5697,192.9925 Q1132.5697,189.8675 1133.8822,188.2112 Q1135.2103,186.555 1137.7103,186.555 Q1138.4134,186.555 1139.054,186.7112 Q1139.7103,186.8675 1140.2728,187.1644 L1140.2728,189.8831 Q1139.6478,189.305 1139.054,189.0394 Q1138.4603,188.7581 1137.8353,188.7581 Q1136.4915,188.7581 1135.804,189.8362 Q1135.1165,190.8987 1135.1165,192.9925 Q1135.1165,195.0862 1135.804,196.1644 Q1136.4915,197.2269 1137.8353,197.2269 Q1138.4603,197.2269 1139.054,196.9612 Q1139.6478,196.68 1140.2728,196.1019 L1140.2728,198.8206 Z " fill="#000000"/><text fill="#000000" font-family="sans-serif" font-size="14" lengthAdjust="spacing" textLength="91.7725" x="1157.804" y="198.0267">ExamFactory</text><line style="stroke:#181818;stroke-width:0.5;" x1="1066.66" x2="1308.2205" y1="209.18" y2="209.18"/><line style="stroke:#181818;stroke-width:0.5;" x1="1066.66" x2="1308.2205" y1="217.18" y2="217.18"/><ellipse cx="1076.66" cy="230.8284" fill="#84BE84" rx="3" ry="3" style="stroke:#038048;stroke-width:1;"/><text fill="#000000" font-family="sans-serif" font-size="14" lengthAdjust="spacing" textLength="217.5605" x="1085.66" y="234.1751">create(type : String, ...) : Exam</text></g><!--class ValidationFactory--><g class="entity" data-entity="ValidationFactory" data-source-line="68" data-uid="ent0040" id="entity_ValidationFactory"><rect fill="#F1F1F1" height="64.2969" rx="2.5" ry="2.5" style="stroke:#181818;stroke-width:0.5;" width="332.585" x="1468.15" y="283.75"/><ellipse cx="1568.8707" cy="299.75" fill="#ADD1B2" rx="11" ry="11" style="stroke:#181818;stroke-width:1;"/><path d="M1571.8395,305.3906 Q1571.2613,305.6875 1570.6207,305.8281 Q1569.9801,305.9844 1569.277,305.9844 Q1566.777,305.9844 1565.4488,304.3438 Q1564.1363,302.6875 1564.1363,299.5625 Q1564.1363,296.4375 1565.4488,294.7813 Q1566.777,293.125 1569.277,293.125 Q1569.9801,293.125 1570.6207,293.2813 Q1571.277,293.4375 1571.8395,293.7344 L1571.8395,296.4531 Q1571.2145,295.875 1570.6207,295.6094 Q1570.027,295.3281 1569.402,295.3281 Q1568.0582,295.3281 1567.3707,296.4063 Q1566.6832,297.4688 1566.6832,299.5625 Q1566.6832,301.6563 1567.3707,302.7344 Q1568.0582,303.7969 1569.402,303.7969 Q1570.027,303.7969 1570.6207,303.5313 Q1571.2145,303.25 1571.8395,302.6719 L1571.8395,305.3906 Z " fill="#000000"/><text fill="#000000" font-family="sans-serif" font-size="14" lengthAdjust="spacing" textLength="122.6436" x="1589.3707" y="304.5967">ValidationFactory</text><line style="stroke:#181818;stroke-width:0.5;" x1="1469.15" x2="1799.735" y1="315.75" y2="315.75"/><line style="stroke:#181818;stroke-width:0.5;" x1="1469.15" x2="1799.735" y1="323.75" y2="323.75"/><ellipse cx="1479.15" cy="337.3984" fill="#84BE84" rx="3" ry="3" style="stroke:#038048;stroke-width:1;"/><text fill="#000000" font-family="sans-serif" font-size="14" lengthAdjust="spacing" textLength="306.585" x="1488.15" y="340.7451">get(examType : String) : ValidationStrategy</text></g><!--class FormatterFactory--><g class="entity" data-entity="FormatterFactory" data-source-line="71" data-uid="ent0041" id="entity_FormatterFactory"><rect fill="#F1F1F1" height="64.2969" rx="2.5" ry="2.5" style="stroke:#181818;stroke-width:0.5;" width="292.8613" x="296.01" y="283.75"/><ellipse cx="377.009" cy="299.75" fill="#ADD1B2" rx="11" ry="11" style="stroke:#181818;stroke-width:1;"/><path d="M379.9778,305.3906 Q379.3996,305.6875 378.759,305.8281 Q378.1184,305.9844 377.4153,305.9844 Q374.9153,305.9844 373.5871,304.3438 Q372.2746,302.6875 372.2746,299.5625 Q372.2746,296.4375 373.5871,294.7813 Q374.9153,293.125 377.4153,293.125 Q378.1184,293.125 378.759,293.2813 Q379.4153,293.4375 379.9778,293.7344 L379.9778,296.4531 Q379.3528,295.875 378.759,295.6094 Q378.1653,295.3281 377.5403,295.3281 Q376.1965,295.3281 375.509,296.4063 Q374.8215,297.4688 374.8215,299.5625 Q374.8215,301.6563 375.509,302.7344 Q376.1965,303.7969 377.5403,303.7969 Q378.1653,303.7969 378.759,303.5313 Q379.3528,303.25 379.9778,302.6719 L379.9778,305.3906 Z " fill="#000000"/><text fill="#000000" font-family="sans-serif" font-size="14" lengthAdjust="spacing" textLength="122.3633" x="397.509" y="304.5967">FormatterFactory</text><line style="stroke:#181818;stroke-width:0.5;" x1="297.01" x2="587.8713" y1="315.75" y2="315.75"/><line style="stroke:#181818;stroke-width:0.5;" x1="297.01" x2="587.8713" y1="323.75" y2="323.75"/><ellipse cx="307.01" cy="337.3984" fill="#84BE84" rx="3" ry="3" style="stroke:#038048;stroke-width:1;"/><text fill="#000000" font-family="sans-serif" font-size="14" lengthAdjust="spacing" textLength="266.8613" x="316.01" y="340.7451">get(format : String) : ReportFormatter</text></g><!--class NotifierFactory--><g class="entity" data-entity="NotifierFactory" data-source-line="74" data-uid="ent0042" id="entity_NotifierFactory"><rect fill="#F1F1F1" height="64.2969" rx="2.5" ry="2.5" style="stroke:#181818;stroke-width:0.5;" width="235.9316" x="527.47" y="443.24"/><ellipse cx="589.1712" cy="459.24" fill="#ADD1B2" rx="11" ry="11" style="stroke:#181818;stroke-width:1;"/><path d="M592.1399,464.8806 Q591.5618,465.1775 590.9212,465.3181 Q590.2805,465.4744 589.5774,465.4744 Q587.0774,465.4744 585.7493,463.8338 Q584.4368,462.1775 584.4368,459.0525 Q584.4368,455.9275 585.7493,454.2713 Q587.0774,452.615 589.5774,452.615 Q590.2805,452.615 590.9212,452.7713 Q591.5774,452.9275 592.1399,453.2244 L592.1399,455.9431 Q591.5149,455.365 590.9212,455.0994 Q590.3274,454.8181 589.7024,454.8181 Q588.3587,454.8181 587.6712,455.8963 Q586.9837,456.9588 586.9837,459.0525 Q586.9837,461.1463 587.6712,462.2244 Q588.3587,463.2869 589.7024,463.2869 Q590.3274,463.2869 590.9212,463.0213 Q591.5149,462.74 592.1399,462.1619 L592.1399,464.8806 Z " fill="#000000"/><text fill="#000000" font-family="sans-serif" font-size="14" lengthAdjust="spacing" textLength="104.0293" x="609.6712" y="464.0867">NotifierFactory</text><line style="stroke:#181818;stroke-width:0.5;" x1="528.47" x2="762.4016" y1="475.24" y2="475.24"/><line style="stroke:#181818;stroke-width:0.5;" x1="528.47" x2="762.4016" y1="483.24" y2="483.24"/><ellipse cx="538.47" cy="496.8884" fill="#84BE84" rx="3" ry="3" style="stroke:#038048;stroke-width:1;"/><text fill="#000000" font-family="sans-serif" font-size="14" lengthAdjust="spacing" textLength="209.9316" x="547.47" y="500.2351">get(channel : String) : Notifier</text></g><!--class DiscountFactory--><g class="entity" data-entity="DiscountFactory" data-source-line="77" data-uid="ent0043" id="entity_DiscountFactory"><rect fill="#F1F1F1" height="64.2969" rx="2.5" ry="2.5" style="stroke:#181818;stroke-width:0.5;" width="260.917" x="1201.98" y="283.75"/><ellipse cx="1271.2451" cy="299.75" fill="#ADD1B2" rx="11" ry="11" style="stroke:#181818;stroke-width:1;"/><path d="M1274.2139,305.3906 Q1273.6358,305.6875 1272.9951,305.8281 Q1272.3545,305.9844 1271.6514,305.9844 Q1269.1514,305.9844 1267.8233,304.3438 Q1266.5108,302.6875 1266.5108,299.5625 Q1266.5108,296.4375 1267.8233,294.7813 Q1269.1514,293.125 1271.6514,293.125 Q1272.3545,293.125 1272.9951,293.2813 Q1273.6514,293.4375 1274.2139,293.7344 L1274.2139,296.4531 Q1273.5889,295.875 1272.9951,295.6094 Q1272.4014,295.3281 1271.7764,295.3281 Q1270.4326,295.3281 1269.7451,296.4063 Q1269.0576,297.4688 1269.0576,299.5625 Q1269.0576,301.6563 1269.7451,302.7344 Q1270.4326,303.7969 1271.7764,303.7969 Q1272.4014,303.7969 1272.9951,303.5313 Q1273.5889,303.25 1274.2139,302.6719 L1274.2139,305.3906 Z " fill="#000000"/><text fill="#000000" font-family="sans-serif" font-size="14" lengthAdjust="spacing" textLength="113.8867" x="1291.7451" y="304.5967">DiscountFactory</text><line style="stroke:#181818;stroke-width:0.5;" x1="1202.98" x2="1461.897" y1="315.75" y2="315.75"/><line style="stroke:#181818;stroke-width:0.5;" x1="1202.98" x2="1461.897" y1="323.75" y2="323.75"/><ellipse cx="1212.98" cy="337.3984" fill="#84BE84" rx="3" ry="3" style="stroke:#038048;stroke-width:1;"/><text fill="#000000" font-family="sans-serif" font-size="14" lengthAdjust="spacing" textLength="234.917" x="1221.98" y="340.7451">get(kind : String) : DiscountPolicy</text></g><!--class Sequencer--><g class="entity" data-entity="Sequencer" data-source-line="82" data-uid="ent0044" id="entity_Sequencer"><rect fill="#F1F1F1" height="88.8594" rx="2.5" ry="2.5" style="stroke:#181818;stroke-width:0.5;" width="106.8125" x="698.03" y="164.89"/><ellipse cx="713.03" cy="185.0228" fill="#ADD1B2" rx="11" ry="11" style="stroke:#181818;stroke-width:1;"/><path d="M715.9988,190.6634 Q715.4206,190.9603 714.78,191.1009 Q714.1394,191.2572 713.4363,191.2572 Q710.9363,191.2572 709.6081,189.6166 Q708.2956,187.9603 708.2956,184.8353 Q708.2956,181.7103 709.6081,180.0541 Q710.9363,178.3978 713.4363,178.3978 Q714.1394,178.3978 714.78,178.5541 Q715.4363,178.7103 715.9988,179.0072 L715.9988,181.7259 Q715.3738,181.1478 714.78,180.8822 Q714.1863,180.6009 713.5613,180.6009 Q712.2175,180.6009 711.53,181.6791 Q710.8425,182.7416 710.8425,184.8353 Q710.8425,186.9291 711.53,188.0072 Q712.2175,189.0697 713.5613,189.0697 Q714.1863,189.0697 714.78,188.8041 Q715.3738,188.5228 715.9988,187.9447 L715.9988,190.6634 Z " fill="#000000"/><text fill="#000000" font-family="sans-serif" font-size="12" font-style="italic" lengthAdjust="spacing" textLength="71.2266" x="728.823" y="181.0287">&#171;Singleton&#187;</text><text fill="#000000" font-family="sans-serif" font-size="14" lengthAdjust="spacing" textLength="74.8125" x="727.03" y="196.8539">Sequencer</text><line style="stroke:#181818;stroke-width:0.5;" x1="699.03" x2="803.8425" y1="205.1556" y2="205.1556"/><rect fill="none" height="6" style="stroke:#C82930;stroke-width:1;" width="6" x="706.03" y="215.8041"/><text fill="#000000" font-family="sans-serif" font-size="14" lengthAdjust="spacing" textLength="57.1211" x="718.03" y="222.1507">last : int</text><line style="stroke:#181818;stroke-width:0.5;" x1="699.03" x2="803.8425" y1="229.4525" y2="229.4525"/><ellipse cx="709.03" cy="243.1009" fill="#84BE84" rx="3" ry="3" style="stroke:#038048;stroke-width:1;"/><text fill="#000000" font-family="sans-serif" font-size="14" lengthAdjust="spacing" textLength="74.0537" x="718.03" y="246.4476">next() : int</text></g><!--class ExamQueue--><g class="entity" data-entity="ExamQueue" data-source-line="88" data-uid="ent0045" id="entity_ExamQueue"><rect fill="#F1F1F1" height="88.8594" rx="2.5" ry="2.5" style="stroke:#181818;stroke-width:0.5;" width="190.3496" x="840.26" y="164.89"/><ellipse cx="884.6721" cy="185.0228" fill="#ADD1B2" rx="11" ry="11" style="stroke:#181818;stroke-width:1;"/><path d="M887.6409,190.6634 Q887.0627,190.9603 886.4221,191.1009 Q885.7815,191.2572 885.0784,191.2572 Q882.5784,191.2572 881.2502,189.6166 Q879.9377,187.9603 879.9377,184.8353 Q879.9377,181.7103 881.2502,180.0541 Q882.5784,178.3978 885.0784,178.3978 Q885.7815,178.3978 886.4221,178.5541 Q887.0784,178.7103 887.6409,179.0072 L887.6409,181.7259 Q887.0159,181.1478 886.4221,180.8822 Q885.8284,180.6009 885.2034,180.6009 Q883.8596,180.6009 883.1721,181.6791 Q882.4846,182.7416 882.4846,184.8353 Q882.4846,186.9291 883.1721,188.0072 Q883.8596,189.0697 885.2034,189.0697 Q885.8284,189.0697 886.4221,188.8041 Q887.0159,188.5228 887.6409,187.9447 L887.6409,190.6634 Z " fill="#000000"/><text fill="#000000" font-family="sans-serif" font-size="12" font-style="italic" lengthAdjust="spacing" textLength="97.0254" x="903.1721" y="181.0287">&#171;PriorityQueue&#187;</text><text fill="#000000" font-family="sans-serif" font-size="14" lengthAdjust="spacing" textLength="85.3398" x="909.0149" y="196.8539">ExamQueue</text><line style="stroke:#181818;stroke-width:0.5;" x1="841.26" x2="1029.6096" y1="205.1556" y2="205.1556"/><line style="stroke:#181818;stroke-width:0.5;" x1="841.26" x2="1029.6096" y1="213.1556" y2="213.1556"/><ellipse cx="851.26" cy="226.8041" fill="#84BE84" rx="3" ry="3" style="stroke:#038048;stroke-width:1;"/><text fill="#000000" font-family="sans-serif" font-size="14" lengthAdjust="spacing" textLength="164.3496" x="860.26" y="230.1507">enqueue(exam : Exam)</text><ellipse cx="851.26" cy="243.1009" fill="#84BE84" rx="3" ry="3" style="stroke:#038048;stroke-width:1;"/><text fill="#000000" font-family="sans-serif" font-size="14" lengthAdjust="spacing" textLength="125.248" x="860.26" y="246.4476">dequeue() : Exam</text></g><!--class ExamService--><g class="entity" data-entity="ExamService" data-source-line="94" data-uid="ent0046" id="entity_ExamService"><rect fill="#F1F1F1" height="80.5938" rx="2.5" ry="2.5" style="stroke:#181818;stroke-width:0.5;" width="163.2383" x="853.82" y="15.15"/><ellipse cx="886.8872" cy="31.15" fill="#ADD1B2" rx="11" ry="11" style="stroke:#181818;stroke-width:1;"/><path d="M889.856,36.7906 Q889.2779,37.0875 888.6372,37.2281 Q887.9966,37.3844 887.2935,37.3844 Q884.7935,37.3844 883.4654,35.7437 Q882.1529,34.0875 882.1529,30.9625 Q882.1529,27.8375 883.4654,26.1812 Q884.7935,24.525 887.2935,24.525 Q887.9966,24.525 888.6372,24.6812 Q889.2935,24.8375 889.856,25.1344 L889.856,27.8531 Q889.231,27.275 888.6372,27.0094 Q888.0435,26.7281 887.4185,26.7281 Q886.0747,26.7281 885.3872,27.8062 Q884.6997,28.8687 884.6997,30.9625 Q884.6997,33.0562 885.3872,34.1344 Q886.0747,35.1969 887.4185,35.1969 Q888.0435,35.1969 888.6372,34.9312 Q889.231,34.65 889.856,34.0719 L889.856,36.7906 Z " fill="#000000"/><text fill="#000000" font-family="sans-serif" font-size="14" lengthAdjust="spacing" textLength="91.0889" x="904.9022" y="35.9967">ExamService</text><line style="stroke:#181818;stroke-width:0.5;" x1="854.82" x2="1016.0583" y1="47.15" y2="47.15"/><line style="stroke:#181818;stroke-width:0.5;" x1="854.82" x2="1016.0583" y1="55.15" y2="55.15"/><ellipse cx="864.82" cy="68.7984" fill="#84BE84" rx="3" ry="3" style="stroke:#038048;stroke-width:1;"/><text fill="#000000" font-family="sans-serif" font-size="14" lengthAdjust="spacing" textLength="117.9199" x="873.82" y="72.1451">registerExam(...)</text><ellipse cx="864.82" cy="85.0953" fill="#84BE84" rx="3" ry="3" style="stroke:#038048;stroke-width:1;"/><text fill="#000000" font-family="sans-serif" font-size="14" lengthAdjust="spacing" textLength="137.2383" x="873.82" y="88.442">processNextExam()</text></g><!--reverse link Exam to Hemogram--><g class="link" data-entity-1="Exam" data-entity-2="Hemogram" data-source-line="25" data-uid="lnk5" id="link_Exam_Hemogram"><path d="M942.8707,588.0969 C922.7307,619.5369 911.84,636.53 898.43,657.47" fill="none" id="Exam-backto-Hemogram" style="stroke:#181818;stroke-width:1;"/><polygon fill="none" points="952.58,572.94,937.8185,584.8604,947.923,591.3333,952.58,572.94" style="stroke:#181818;stroke-width:1;"/></g><!--reverse link Exam to Ultrasound--><g class="link" data-entity-1="Exam" data-entity-2="Ultrasound" data-source-line="26" data-uid="lnk7" id="link_Exam_Ultrasound"><path d="M1021.7227,590.9037 C1023.7227,622.3437 1024.62,636.53 1025.95,657.47" fill="none" id="Exam-backto-Ultrasound" style="stroke:#181818;stroke-width:1;"/><polygon fill="none" points="1020.58,572.94,1015.7348,591.2846,1027.7106,590.5228,1020.58,572.94" style="stroke:#181818;stroke-width:1;"/></g><!--reverse link Exam to MRI--><g class="link" data-entity-1="Exam" data-entity-2="MRI" data-source-line="27" data-uid="lnk9" id="link_Exam_MRI"><path d="M1085.9993,588.0969 C1106.1393,619.5369 1117.03,636.53 1130.45,657.47" fill="none" id="Exam-backto-MRI" style="stroke:#181818;stroke-width:1;"/><polygon fill="none" points="1076.29,572.94,1080.947,591.3333,1091.0515,584.8604,1076.29,572.94" style="stroke:#181818;stroke-width:1;"/></g><!--reverse link ValidationStrategy to HemogramValidation--><g class="link" data-entity-1="ValidationStrategy" data-entity-2="HemogramValidation" data-source-line="37" data-uid="lnk15" id="link_ValidationStrategy_HemogramValidation"><path d="M1592.6154,727.4682 C1574.7554,746.5082 1564.67,757.26 1548.38,774.63" fill="none" id="ValidationStrategy-backto-HemogramValidation" style="stroke:#181818;stroke-width:1;stroke-dasharray:7,7;"/><polygon fill="none" points="1604.93,714.34,1588.2393,723.3634,1596.9915,731.5731,1604.93,714.34" style="stroke:#181818;stroke-width:1;"/></g><!--reverse link ValidationStrategy to MRIValidation--><g class="link" data-entity-1="ValidationStrategy" data-entity-2="MRIValidation" data-source-line="38" data-uid="lnk17" id="link_ValidationStrategy_MRIValidation"><path d="M1666.9296,729.06 C1680.3296,748.1 1686.77,757.26 1698.99,774.63" fill="none" id="ValidationStrategy-backto-MRIValidation" style="stroke:#181818;stroke-width:1;stroke-dasharray:7,7;"/><polygon fill="none" points="1656.57,714.34,1662.023,732.5132,1671.8363,725.6068,1656.57,714.34" style="stroke:#181818;stroke-width:1;"/></g><!--reverse link ValidationStrategy to DefaultValidation--><g class="link" data-entity-1="ValidationStrategy" data-entity-2="DefaultValidation" data-source-line="39" data-uid="lnk19" id="link_ValidationStrategy_DefaultValidation"><path d="M1721.4362,721.8507 C1763.9262,740.8907 1800.7,757.36 1839.37,774.69" fill="none" id="ValidationStrategy-backto-DefaultValidation" style="stroke:#181818;stroke-width:1;stroke-dasharray:7,7;"/><polygon fill="none" points="1705.01,714.49,1718.9827,727.3261,1723.8898,716.3753,1705.01,714.49" style="stroke:#181818;stroke-width:1;"/></g><!--reverse link ReportFormatter to TextFormatter--><g class="link" data-entity-1="ReportFormatter" data-entity-2="TextFormatter" data-source-line="45" data-uid="lnk22" id="link_ReportFormatter_TextFormatter"><path d="M253.4629,721.5279 C208.6429,740.5679 169.12,757.36 128.34,774.69" fill="none" id="ReportFormatter-backto-TextFormatter" style="stroke:#181818;stroke-width:1;stroke-dasharray:7,7;"/><polygon fill="none" points="270.03,714.49,251.117,716.0055,255.8089,727.0502,270.03,714.49" style="stroke:#181818;stroke-width:1;"/></g><!--reverse link ReportFormatter to HtmlFormatter--><g class="link" data-entity-1="ReportFormatter" data-entity-2="HtmlFormatter" data-source-line="46" data-uid="lnk24" id="link_ReportFormatter_HtmlFormatter"><path d="M304.633,727.8125 C287.763,746.8525 278.54,757.26 263.16,774.63" fill="none" id="ReportFormatter-backto-HtmlFormatter" style="stroke:#181818;stroke-width:1;stroke-dasharray:7,7;"/><polygon fill="none" points="316.57,714.34,300.1422,723.8335,309.1238,731.7915,316.57,714.34" style="stroke:#181818;stroke-width:1;"/></g><!--reverse link ReportFormatter to PdfFormatter--><g class="link" data-entity-1="ReportFormatter" data-entity-2="PdfFormatter" data-source-line="47" data-uid="lnk26" id="link_ReportFormatter_PdfFormatter"><path d="M370.2914,730.1301 C380.7114,749.1701 385.14,757.26 394.64,774.63" fill="none" id="ReportFormatter-backto-PdfFormatter" style="stroke:#181818;stroke-width:1;stroke-dasharray:7,7;"/><polygon fill="none" points="361.65,714.34,365.0281,733.0105,375.5548,727.2496,361.65,714.34" style="stroke:#181818;stroke-width:1;"/></g><!--reverse link Notifier to WhatsAppNotifier--><g class="link" data-entity-1="Notifier" data-entity-2="WhatsAppNotifier" data-source-line="53" data-uid="lnk29" id="link_Notifier_WhatsAppNotifier"><path d="M619.5786,730.1301 C609.1586,749.1701 604.74,757.26 595.24,774.63" fill="none" id="Notifier-backto-WhatsAppNotifier" style="stroke:#181818;stroke-width:1;stroke-dasharray:7,7;"/><polygon fill="none" points="628.22,714.34,614.3152,727.2496,624.8419,733.0105,628.22,714.34" style="stroke:#181818;stroke-width:1;"/></g><!--reverse link Notifier to EmailNotifier--><g class="link" data-entity-1="Notifier" data-entity-2="EmailNotifier" data-source-line="54" data-uid="lnk31" id="link_Notifier_EmailNotifier"><path d="M688.2644,727.2972 C706.6244,746.3372 717.15,757.26 733.89,774.63" fill="none" id="Notifier-backto-EmailNotifier" style="stroke:#181818;stroke-width:1;stroke-dasharray:7,7;"/><polygon fill="none" points="675.77,714.34,683.9454,731.462,692.5835,723.1324,675.77,714.34" style="stroke:#181818;stroke-width:1;"/></g><!--reverse link Notifier to SmsNotifier--><g class="link" data-entity-1="Notifier" data-entity-2="SmsNotifier" data-source-line="55" data-uid="lnk33" id="link_Notifier_SmsNotifier"><path d="M734.4287,721.6867 C778.0787,740.7267 816.22,757.36 855.96,774.69" fill="none" id="Notifier-backto-SmsNotifier" style="stroke:#181818;stroke-width:1;stroke-dasharray:7,7;"/><polygon fill="none" points="717.93,714.49,732.0298,727.1863,736.8276,716.1871,717.93,714.49" style="stroke:#181818;stroke-width:1;"/></g><!--reverse link DiscountPolicy to ConvenioDiscount--><g class="link" data-entity-1="DiscountPolicy" data-entity-2="ConvenioDiscount" data-source-line="61" data-uid="lnk36" id="link_DiscountPolicy_ConvenioDiscount"><path d="M1267.195,723.9261 C1236.935,742.9661 1214.22,757.26 1186.61,774.63" fill="none" id="DiscountPolicy-backto-ConvenioDiscount" style="stroke:#181818;stroke-width:1;stroke-dasharray:7,7;"/><polygon fill="none" points="1282.43,714.34,1263.9996,718.8477,1270.3903,729.0044,1282.43,714.34" style="stroke:#181818;stroke-width:1;"/></g><!--reverse link DiscountPolicy to SeniorDiscount--><g class="link" data-entity-1="DiscountPolicy" data-entity-2="SeniorDiscount" data-source-line="62" data-uid="lnk38" id="link_DiscountPolicy_SeniorDiscount"><path d="M1332.44,732.34 C1332.44,751.38 1332.44,757.26 1332.44,774.63" fill="none" id="DiscountPolicy-backto-SeniorDiscount" style="stroke:#181818;stroke-width:1;stroke-dasharray:7,7;"/><polygon fill="none" points="1332.44,714.34,1326.44,732.34,1338.44,732.34,1332.44,714.34" style="stroke:#181818;stroke-width:1;"/></g><!--reverse link Exam to ValidationStrategy--><g class="link" data-entity-1="Exam" data-entity-2="ValidationStrategy" data-source-line="100" data-uid="lnk47" id="link_Exam_ValidationStrategy"><path codeLine="100" d="M1229.017,552.3345 C1253.167,560.6445 1266.15,565 1289.44,572.72 C1374.48,600.94 1471.96,631.32 1541.55,652.67" fill="none" id="Exam-backto-ValidationStrategy" style="stroke:#181818;stroke-width:1;"/><polygon fill="none" points="1217.67,548.43,1222.042,554.1646,1229.017,552.3345,1224.645,546.5999,1217.67,548.43" style="stroke:#181818;stroke-width:1;"/><text fill="#000000" font-family="sans-serif" font-size="13" lengthAdjust="spacing" textLength="8.271" x="1225.1223" y="547.8548">1</text><text fill="#000000" font-family="sans-serif" font-size="13" lengthAdjust="spacing" textLength="8.271" x="1525.5377" y="646.7033">1</text></g><!--reverse link Exam to ReportFormatter--><g class="link" data-entity-1="Exam" data-entity-2="ReportFormatter" data-source-line="101" data-uid="lnk48" id="link_Exam_ReportFormatter"><path codeLine="101" d="M800.2834,576.6836 C756.5034,594.5936 721.05,607.08 676.44,619.72 C591.23,643.87 566.43,633.09 479.44,649.72 C474.12,650.74 468.7,651.82 463.23,652.94" fill="none" id="Exam-backto-ReportFormatter" style="stroke:#181818;stroke-width:1;"/><polygon fill="none" points="811.39,572.14,804.3222,570.7096,800.2834,576.6836,807.3512,578.114,811.39,572.14" style="stroke:#181818;stroke-width:1;"/><text fill="#000000" font-family="sans-serif" font-size="13" lengthAdjust="spacing" textLength="8.271" x="795.3075" y="572.696">1</text><text fill="#000000" font-family="sans-serif" font-size="13" lengthAdjust="spacing" textLength="8.271" x="470.7209" y="647.7911">1</text></g><!--reverse link Exam to DiscountPolicy--><g class="link" data-entity-1="Exam" data-entity-2="DiscountPolicy" data-source-line="102" data-uid="lnk49" id="link_Exam_DiscountPolicy"><path codeLine="102" d="M1174.6835,579.43 C1217.6235,607.04 1251.33,628.72 1283.42,649.35" fill="none" id="Exam-backto-DiscountPolicy" style="stroke:#181818;stroke-width:1;"/><polygon fill="none" points="1164.59,572.94,1167.4734,579.5495,1174.6835,579.43,1171.8001,572.8205,1164.59,572.94" style="stroke:#181818;stroke-width:1;"/><text fill="#000000" font-family="sans-serif" font-size="13" lengthAdjust="spacing" textLength="8.271" x="1167.3329" y="592.7267">1</text><text fill="#000000" font-family="sans-serif" font-size="13" lengthAdjust="spacing" textLength="23.0356" x="1248.5081" y="638.5513">1..*</text></g><!--reverse link Exam to Notifier--><g class="link" data-entity-1="Exam" data-entity-2="Notifier" data-source-line="103" data-uid="lnk50" id="link_Exam_Notifier"><path codeLine="103" d="M829.4343,578.9072 C779.6543,606.4972 739.4,628.8 702.23,649.4" fill="none" id="Exam-backto-Notifier" style="stroke:#181818;stroke-width:1;"/><polygon fill="none" points="839.93,573.09,832.7431,572.5,829.4343,578.9072,836.6212,579.4972,839.93,573.09" style="stroke:#181818;stroke-width:1;"/><text fill="#000000" font-family="sans-serif" font-size="13" lengthAdjust="spacing" textLength="8.271" x="818.8307" y="592.8877">1</text><text fill="#000000" font-family="sans-serif" font-size="13" lengthAdjust="spacing" textLength="8.271" x="704.6491" y="638.6112">1</text></g><!--link ExamFactory to Exam--><g class="link" data-entity-1="ExamFactory" data-entity-2="Exam" data-source-line="105" data-uid="lnk51" id="link_ExamFactory_Exam"><path codeLine="105" d="M1166.74,241.91 C1144.81,275.39 1112.3884,324.8814 1081.0484,372.7114" fill="none" id="ExamFactory-to-Exam" style="stroke:#181818;stroke-width:1;stroke-dasharray:7,7;"/><polygon fill="#181818" points="1077.76,377.73,1086.0383,372.3943,1080.5003,373.5478,1079.3468,368.0098,1077.76,377.73" style="stroke:#181818;stroke-width:1;"/><text fill="#000000" font-family="sans-serif" font-size="13" lengthAdjust="spacing" textLength="41.5518" x="1136.44" y="320.4669">create</text></g><!--link ValidationFactory to ValidationStrategy--><g class="link" data-entity-1="ValidationFactory" data-entity-2="ValidationStrategy" data-source-line="106" data-uid="lnk52" id="link_ValidationFactory_ValidationStrategy"><path codeLine="106" d="M1634.44,348.25 C1634.44,417.05 1634.44,574.62 1634.44,643.47" fill="none" id="ValidationFactory-to-ValidationStrategy" style="stroke:#181818;stroke-width:1;stroke-dasharray:7,7;"/><polygon fill="#181818" points="1634.44,649.47,1638.44,640.47,1634.44,644.47,1630.44,640.47,1634.44,649.47" style="stroke:#181818;stroke-width:1;"/><text fill="#000000" font-family="sans-serif" font-size="13" lengthAdjust="spacing" textLength="21.3472" x="1635.44" y="479.9569">get</text></g><!--link FormatterFactory to ReportFormatter--><g class="link" data-entity-1="FormatterFactory" data-entity-2="ReportFormatter" data-source-line="107" data-uid="lnk53" id="link_FormatterFactory_ReportFormatter"><path codeLine="107" d="M434,348.25 C415.47,417.05 372.9901,574.8264 354.4501,643.6764" fill="none" id="FormatterFactory-to-ReportFormatter" style="stroke:#181818;stroke-width:1;stroke-dasharray:7,7;"/><polygon fill="#181818" points="352.89,649.47,359.0926,641.8196,354.1901,644.642,351.3678,639.7395,352.89,649.47" style="stroke:#181818;stroke-width:1;"/><text fill="#000000" font-family="sans-serif" font-size="13" lengthAdjust="spacing" textLength="21.3472" x="426.44" y="479.9569">get</text></g><!--link NotifierFactory to Notifier--><g class="link" data-entity-1="NotifierFactory" data-entity-2="Notifier" data-source-line="108" data-uid="lnk54" id="link_NotifierFactory_Notifier"><path codeLine="108" d="M645.44,507.89 C645.44,546.32 645.44,604.89 645.44,643.33" fill="none" id="NotifierFactory-to-Notifier" style="stroke:#181818;stroke-width:1;stroke-dasharray:7,7;"/><polygon fill="#181818" points="645.44,649.33,649.44,640.33,645.44,644.33,641.44,640.33,645.44,649.33" style="stroke:#181818;stroke-width:1;"/><text fill="#000000" font-family="sans-serif" font-size="13" lengthAdjust="spacing" textLength="21.3472" x="646.44" y="615.7869">get</text></g><!--link DiscountFactory to DiscountPolicy--><g class="link" data-entity-1="DiscountFactory" data-entity-2="DiscountPolicy" data-source-line="109" data-uid="lnk55" id="link_DiscountFactory_DiscountPolicy"><path codeLine="109" d="M1332.44,348.25 C1332.44,417.05 1332.44,574.62 1332.44,643.47" fill="none" id="DiscountFactory-to-DiscountPolicy" style="stroke:#181818;stroke-width:1;stroke-dasharray:7,7;"/><polygon fill="#181818" points="1332.44,649.47,1336.44,640.47,1332.44,644.47,1328.44,640.47,1332.44,649.47" style="stroke:#181818;stroke-width:1;"/><text fill="#000000" font-family="sans-serif" font-size="13" lengthAdjust="spacing" textLength="21.3472" x="1333.44" y="479.9569">get</text></g><!--link ExamService to ExamQueue--><g class="link" data-entity-1="ExamService" data-entity-2="ExamQueue" data-source-line="111" data-uid="lnk56" id="link_ExamService_ExamQueue"><path codeLine="111" d="M935.44,95.96 C935.44,116.96 935.44,136.84 935.44,158.47" fill="none" id="ExamService-to-ExamQueue" style="stroke:#181818;stroke-width:1;"/><polygon fill="#181818" points="935.44,164.47,939.44,155.47,935.44,159.47,931.44,155.47,935.44,164.47" style="stroke:#181818;stroke-width:1;"/></g><!--link ExamService to Sequencer--><g class="link" data-entity-1="ExamService" data-entity-2="Sequencer" data-source-line="112" data-uid="lnk57" id="link_ExamService_Sequencer"><path codeLine="112" d="M887.58,95.96 C862.13,116.96 835.3969,139.0201 809.1969,160.6501" fill="none" id="ExamService-to-Sequencer" style="stroke:#181818;stroke-width:1;"/><polygon fill="#181818" points="804.57,164.47,814.057,161.8248,808.4258,161.2868,808.9638,155.6556,804.57,164.47" style="stroke:#181818;stroke-width:1;"/></g><!--link ExamService to ExamFactory--><g class="link" data-entity-1="ExamService" data-entity-2="ExamFactory" data-source-line="113" data-uid="lnk58" id="link_ExamService_ExamFactory"><path codeLine="113" d="M1001.32,96.15 C1043.03,121.29 1091.071,150.2531 1129.901,173.6531" fill="none" id="ExamService-to-ExamFactory" style="stroke:#181818;stroke-width:1;"/><polygon fill="#181818" points="1135.04,176.75,1129.3961,168.6787,1130.7575,174.1693,1125.2669,175.5307,1135.04,176.75" style="stroke:#181818;stroke-width:1;"/></g><!--link ExamService to ValidationFactory--><g class="link" data-entity-1="ExamService" data-entity-2="ValidationFactory" data-source-line="114" data-uid="lnk59" id="link_ExamService_ValidationFactory"><path codeLine="114" d="M1017.22,66.28 C1093.93,77.16 1210.96,98.09 1307.44,133.9 C1413.44,173.24 1521.6281,239.5814 1583.1181,280.0514" fill="none" id="ExamService-to-ValidationFactory" style="stroke:#181818;stroke-width:1;"/><polygon fill="#181818" points="1588.13,283.35,1582.8112,275.0608,1583.9534,280.6012,1578.4131,281.7433,1588.13,283.35" style="stroke:#181818;stroke-width:1;"/></g><!--link ExamService to FormatterFactory--><g class="link" data-entity-1="ExamService" data-entity-2="FormatterFactory" data-source-line="115" data-uid="lnk60" id="link_ExamService_FormatterFactory"><path codeLine="115" d="M853.61,63.96 C786.96,72.93 692.3,92.33 619.44,133.9 C552.63,172.01 498.0115,237.7714 467.8815,278.6214" fill="none" id="ExamService-to-FormatterFactory" style="stroke:#181818;stroke-width:1;"/><polygon fill="#181818" points="464.32,283.45,472.8813,278.5814,467.2879,279.4261,466.4431,273.8327,464.32,283.45" style="stroke:#181818;stroke-width:1;"/></g><!--link ExamService to NotifierFactory--><g class="link" data-entity-1="ExamService" data-entity-2="NotifierFactory" data-source-line="116" data-uid="lnk61" id="link_ExamService_NotifierFactory"><path codeLine="116" d="M853.37,69.16 C795.52,82.66 721.34,110.03 680.44,164.89 C617.9,248.78 628.9688,376.7443 638.5588,437.1243" fill="none" id="ExamService-to-NotifierFactory" style="stroke:#181818;stroke-width:1;"/><polygon fill="#181818" points="639.5,443.05,642.0387,433.534,638.7157,438.1119,634.1378,434.7889,639.5,443.05" style="stroke:#181818;stroke-width:1;"/></g><!--link ExamService to DiscountFactory--><g class="link" data-entity-1="ExamService" data-entity-2="DiscountFactory" data-source-line="117" data-uid="lnk62" id="link_ExamService_DiscountFactory"><path codeLine="117" d="M1017.49,67.78 C1120.46,83.84 1288.27,116.72 1326.44,164.89 C1352.91,198.29 1349.2476,244.349 1342.2576,277.509" fill="none" id="ExamService-to-DiscountFactory" style="stroke:#181818;stroke-width:1;"/><polygon fill="#181818" points="1341.02,283.38,1346.7904,275.3986,1342.0513,278.4875,1338.9624,273.7485,1341.02,283.38" style="stroke:#181818;stroke-width:1;"/></g><!--reverse link ExamQueue to Exam--><g class="link" data-entity-1="ExamQueue" data-entity-2="Exam" data-source-line="119" data-uid="lnk63" id="link_ExamQueue_Exam"><path codeLine="119" d="M952.0106,265.7262 C962.0606,299.3062 972.86,335.39 985.52,377.74" fill="none" id="ExamQueue-backto-Exam" style="stroke:#181818;stroke-width:1;"/><polygon fill="none" points="948.57,254.23,946.4583,261.125,952.0106,265.7262,954.1224,258.8312,948.57,254.23" style="stroke:#181818;stroke-width:1;"/></g><!--link Sequencer to Exam--><g class="link" data-entity-1="Sequencer" data-entity-2="Exam" data-source-line="120" data-uid="lnk64" id="link_Sequencer_Exam"><path codeLine="120" d="M784.13,254.25 C805.73,282.2 835.32,318.56 864.44,348.05 C874.25,357.99 880.3237,363.9403 891.0637,373.7203" fill="none" id="Sequencer-to-Exam" style="stroke:#181818;stroke-width:1;stroke-dasharray:7,7;"/><polygon fill="#181818" points="895.5,377.76,891.5387,368.7429,891.8031,374.3936,886.1524,374.6579,895.5,377.76" style="stroke:#181818;stroke-width:1;"/><text fill="#000000" font-family="sans-serif" font-size="13" lengthAdjust="spacing" textLength="85.0332" x="865.44" y="320.4669">generate id()</text></g><!--SRC=[dLRDRkCs4BxxAGO12jlDsi4U2YoCRG2jfIG2OiahoTlcL30IxIKgarw92jOe2lJQGr-YFHH53ptqkBVuJVea7OhwbnAqoujDpdmpd8_pep5y_JbhD0RVzWDhPO1fmRNbMSxIDbQM4xZgmFeM__kmElrisalNXndOLs0oikEdlrF9Gf6YWSzpZC1PjS1oDYk_SJ2YFDk3zP7irmaJ2PD7-644iF6kyMeM_bkxcwNxNRtttC1sZD6FFRk1RHecne3HcExgz8jZkqq_v3wL2GabX359qznZxca6B885C2vXO8rXHnCI2JY817pw8QCyf0bCVCPtCPM2JtCJ1o8PHGiBMEj_-McYz5D9epT7b9WYb2BHwcMeYrRakUoUf1GFGeh2Y8PiJs8yFyTxo2l6IPpB9jEEz42JhKZsxqZC8ho1u9DfWU9uVqazYW787AR_vb8k9DiUYoiZ0adLxDpGlTWbo100_IWfZpHXXNGJ8vEfo7Wq95rvTibUKmeNOtITfeAVVkKX8x1IoVK7vXQ1yKNfkAHFxmhAzAQuT_lP_S0p0klwRW4wzDFlfzz4yzdnNP4QWdJMtFXIKRBJcNOE3rf09rHTKp-9ug9DHGq7jZ_4T8_NJ0UCrYmq4FdwBp2JRaaMooRqUTXJT5nXDX1Py15Hk2LPz0GncbWDmBE2bMs-Rt5I9qz9Je0lN0CRD-tOBBcK-_X_gA-ZRQtzdFem2J0H6RZtAKqU4B_DP9Q8wG8SbVIOTS-aYbQfg4WnYIT9xhEYu4M_vkkS-UOzaQbnE5Hs6dSlpmfLQqzONEbrqgIZw-_JbkQmxXDaN61ZNBguSJtiHJGD1PSY7OxVP2ZEk5oBc8LbcP338JvEL7kgUq-p3PN1BmL_e9o9qaZpaXt3s19UVlNFJtzzeJf04QE29XKMdaU_Ai7jeA-C9OPv1oihk75D3DruetXO1fMa4NOz3ww8QZTbl652LLEGnuCA60iEM_uBcC_dqw8UgeZhicnRm9QTrq_GDA7G0tLSsggIkczALsJBKBSGIYjbClIDXEy9vpHkMQbIfuINHFVXtpCUjR3jD-cDPTzshc-jm7NwZDVJzFNhQfnUNXP36LMa7ijwKc6ZoQUNEkWwMNkswzd17RpTM1jh-6tVPZIZwAcSjVc-y7OEb7zG-_O4K8A8Qa7ZpJi1MjuxUscfnBenJ6FOkOyjI4rqxIoXEuPV1OcIJ5G-wGcUY137euE1ve9fpvLdtHfBstNqLrlh8oeVi6Slpq2WdleToB2UJZTvEWhp-PTdtUVjsQYxJhE0r9hFB_NSRwy5FFwfA-lnqwXVE0erCAWL2jCF8Rtwo27T4GODHBSMDABJI5k8RlfhHAVxj12ZvYlFPfTrolKaLTeFOWgNFLcFgPv6bvYUGeU7dhmJjOv9burwxJpxwvgjdbUJeByoyLDwCdtyz2y0]--></g></svg>